<svg xmlns="http://www.w3.org/2000/svg" xmlns:svg="http://www.w3.org/2000/svg" id="svg3342" width="360" height="80" version="1.1" viewBox="0 0 360 80"><metadata id="metadata3347"/><g id="layer1" transform="translate(0,-972.36216)"><path style="fill:#fff" id="path3606" d="m 129.07143,998.79082 2,0 0,0.5 -1,0 0,0.99998 1,0 0,0.5 -2,0 0,1 3,0 0,-3.99998 -3,0 0,1 z m 1,-9 1,0 0,-4 -2,0 0,1 1,0 0,3 z m -1,3 1.8,0 -1.8,2.1 0,0.9 3,0 0,-1 -1.8,0 1.8,-2.1 0,-0.9 -3,0 0,1 z m 5,-6 0,2 14,0 0,-2 -14,0 z m 0,13.99998 14,0 0,-1.99998 -14,0 0,1.99998 z m 0,-5.99998 14,0 0,-2 -14,0 0,2 z"/><path style="fill:#fff" id="path3502" d="m 261.88177,987.30604 -0.4,-2 -9,0 0,16.99996 2,0 0,-6.99996 5.6,0 0.4,2 7,0 0,-10 z"/><path style="fill:#fff" id="path3513" d="m 173.80122,1035.4443 0,2 10,0 0,-2 -10,0 z m -4,6 18,0 0,-2 -18,0 0,2 z m 0,-8 18,0 0,-2 -18,0 0,2 z m 4,-6 0,2 10,0 0,-2 -10,0 z m -4,-4 0,2 18,0 0,-2 -18,0 z"/><path style="fill:#fff" id="path3524" d="m 251.15811,1041.9828 18,0 0,-2 -18,0 0,2 z m 0,-4 18,0 0,-2 -18,0 0,2 z m 0,-4 18,0 0,-2 -18,0 0,2 z m 0,-4 18,0 0,-2 -18,0 0,2 z m 0,-6 0,2 18,0 0,-2 -18,0 z"/><path style="fill:#fff" id="path3535" d="m 142.42558,1035.4443 -12,0 0,2 12,0 0,-2 z m 0,-8 -12,0 0,2 12,0 0,-2 z m -12,6 18,0 0,-2 -18,0 0,2 z m 0,8 18,0 0,-2 -18,0 0,2 z m 0,-18 0,2 18,0 0,-2 -18,0 z"/><path style="fill:#fff" id="path3546" d="m 210.58081,1041.988 18,0 0,-2 -18,0 0,2 z m 6,-4 12,0 0,-2 -12,0 0,2 z m -6,-4 18,0 0,-2 -18,0 0,2 z m 6,-4 12,0 0,-2 -12,0 0,2 z m -6,-6 0,2 18,0 0,-2 -18,0 z"/><path style="fill:#fff" id="path3557" d="m 23.432269,1031.2241 c 0.965,-0.675 1.65,-1.765 1.65,-2.79 0,-2.255 -1.745,-4 -4,-4 l -6.249999,0 0,14 7.039999,0 c 2.095,0 3.71,-1.7 3.71,-3.79 0,-1.52 -0.865,-2.815 -2.15,-3.42 z m -5.599999,-4.29 2.999999,0 c 0.83,0 1.5,0.67 1.5,1.5 0,0.83 -0.67,1.5 -1.5,1.5 l -2.999999,0 0,-3 z m 3.499999,9 -3.499999,0 0,-3 3.499999,0 c 0.83,0 1.5,0.67 1.5,1.5 0,0.83 -0.67,1.5 -1.5,1.5 z"/><g style="fill:#fff" id="g3578" transform="translate(87.989016,1019.9544)"><path style="fill:#fff" id="path3568" d="m 0,20 24,0 0,4 -24,0 z"/><path style="fill:#fff" id="path3570" d="m 11,3 -5.5,14 2.25,0 1.125,-3 6.25,0 1.125,3 2.25,0 L 13,3 11,3 Z M 9.625,12 12,5.665 14.375,12 9.625,12 Z"/></g><path style="fill:#fff" id="path3584" d="m 57.603226,1025.4443 0,3 2.215,0 -3.43,8 -2.785,0 0,3 8,0 0,-3 -2.215,0 3.43,-8 2.785,0 0,-3 z"/><path style="fill:#fff" id="path3595" d="m 91.838787,991.34789 c -0.83,0 -1.5,0.67 -1.5,1.5 0,0.83 0.67,1.5 1.5,1.5 0.83,0 1.5,-0.67 1.5,-1.5 0,-0.83 -0.67,-1.5 -1.5,-1.5 z m 0,-6 c -0.83,0 -1.5,0.67 -1.5,1.5 0,0.83 0.67,1.5 1.5,1.5 0.83,0 1.5,-0.67 1.5,-1.5 0,-0.83 -0.67,-1.5 -1.5,-1.5 z m 0,12.165 c -0.735,0 -1.335,0.595 -1.335,1.335 0,0.74 0.6,1.33501 1.335,1.33501 0.735,0 1.335,-0.59501 1.335,-1.33501 0,-0.74 -0.6,-1.335 -1.335,-1.335 z m 3,2.335 14.000003,0 0,-2 -14.000003,0 0,2 z m 0,-6 14.000003,0 0,-2 -14.000003,0 0,2 z m 0,-8 0,2 14.000003,0 0,-2 -14.000003,0 z"/><path style="fill:#fff" id="path3617" d="m 171.8079,992.38685 c 0,-1.71 1.39,-3.1 3.1,-3.1 l 4,0 0,-1.9 -4,0 c -2.76,0 -5,2.24 -5,5 0,2.76 2.24,5 5,5 l 4,0 0,-1.9 -4,0 c -1.71,0 -3.1,-1.39 -3.1,-3.1 z m 4.1,1 8,0 0,-2 -8,0 0,2 z m 9,-6 -4,0 0,1.9 4,0 c 1.71,0 3.1,1.39 3.1,3.1 0,1.71 -1.39,3.1 -3.1,3.1 l -4,0 0,1.9 4,0 c 2.76,0 5,-2.24 5,-5 0,-2.76 -2.24,-5 -5,-5 z"/><path style="fill:#fff" id="path3628" d="m 18.186971,988.71153 0,-4 -7,7 7,7 0,-4.1 c 5,0 8.5,1.6 11,5.1 -1,-5 -4,-10 -11,-11 z"/><path style="fill:#fff" id="path3628-3" d="m 18.186971,988.71153 0,-4 -7,7 7,7 0,-4.1 c 5,0 8.5,1.6 11,5.1 -1,-5 -4,-10 -11,-11 z"/><path style="fill:#fff" id="path3628-3-3" d="m 62.186971,988.35436 0,-4 7,7 -7,7.00003 0,-4.10003 c -5,0 -8.5,1.6 -11,5.10003 1,-5.00003 4,-10.00003 11,-11.00003 z"/><path id="path3617-2" d="m 214.9082,15.025391 c -2.76,0 -5,2.24 -5,5 0,2.75995 2.24,5 5,5 l 4,0 0,-1.900391 -4,0 c -1.71,0 -3.09961,-1.389609 -3.09961,-3.099609 0,-1.71 1.38961,-3.09961 3.09961,-3.09961 l 4,0 0,-1.90039 -4,0 z m 6,0 0,1.90039 4,0 c 1.71,0 3.09961,1.38961 3.09961,3.09961 0,0.696034 -0.25104,1.319971 -0.64062,1.835937 l 0.29883,0.298828 -1.35938,1.359375 -0.29687,0.625 0.39648,0.392578 c 1.22257,-0.742397 3.50195,-2.665044 3.50195,-4.511718 0,-2.76 -2.24,-5 -5,-5 l -4,0 z m -5,4 0,2 8,0 0,-2 -8,0 z m 5,4.099609 0,1.900391 2.01953,0 0.92383,-0.925782 -0.96679,-0.974609 -1.97657,0 z" transform="translate(0,972.36216)" style="fill:#fff"/><text id="text3818-9" x="221.793" y="998.81" xml:space="preserve" style="font-style:normal;font-variant:normal;font-weight:700;font-stretch:normal;font-size:7.51532459px;line-height:125%;font-family:sans-serif;-inkscape-font-specification:'sans-serif, Bold';text-align:start;letter-spacing:0;word-spacing:0;writing-mode:lr-tb;text-anchor:start;fill:#fff;fill-opacity:1;stroke:none;stroke-width:1px;stroke-linecap:butt;stroke-linejoin:miter;stroke-opacity:1"><tspan id="tspan3820-9" x="221.793" y="998.81">×</tspan></text><rect id="rect4343" width="15.856" height="17.77" x="292.564" y="983.363" style="opacity:1;fill:none;fill-opacity:1;stroke:#fff;stroke-width:1.67860162;stroke-miterlimit:4;stroke-dasharray:none;stroke-opacity:1"/><g id="flowRoot4345" transform="matrix(0.19348133,0,0,0.19348133,227.48303,989.39555)" style="font-style:normal;font-variant:normal;font-weight:400;font-stretch:normal;font-size:40px;line-height:125%;font-family:Arial;-inkscape-font-specification:Arial;letter-spacing:0;word-spacing:0;fill:#000;fill-opacity:1;stroke:none;stroke-width:1px;stroke-linecap:butt;stroke-linejoin:miter;stroke-opacity:1"><path id="path4447" d="m 376.97266,49.363057 -6.83594,-28.632812 5.91797,0 4.3164,19.667969 5.23438,-19.667969 6.875,0 5.01953,20 4.39453,-20 5.82031,0 -6.95312,28.632812 -6.13281,0 -5.70313,-21.40625 -5.68359,21.40625 -6.26953,0 z" style="font-style:normal;font-variant:normal;font-weight:700;font-stretch:normal;font-family:Arial;-inkscape-font-specification:'Arial Bold';fill:#fff;fill-opacity:1"/></g><rect id="rect4343-2" width="15.856" height="17.77" x="331.732" y="983.344" style="opacity:1;fill:none;fill-opacity:1;stroke:#fff;stroke-width:1.67860162;stroke-miterlimit:4;stroke-dasharray:none;stroke-opacity:1"/><rect id="rect4343-4" width="15.856" height="17.77" x="292.178" y="1023.537" style="opacity:1;fill:none;fill-opacity:1;stroke:#fff;stroke-width:1.67860162;stroke-miterlimit:4;stroke-dasharray:none;stroke-opacity:1"/><g id="flowRoot4345-0" transform="translate(292.7591,1022.6976)" style="font-style:normal;font-variant:normal;font-weight:400;font-stretch:normal;font-size:7.73925304px;line-height:125%;font-family:Arial;-inkscape-font-specification:Arial;letter-spacing:0;word-spacing:0;fill:#000;fill-opacity:1;stroke:none;stroke-width:1px;stroke-linecap:butt;stroke-linejoin:miter;stroke-opacity:1"><path id="path4450" d="m 9.1577648,16.422657 0,-4.602739 -1.6438355,0 0,-0.937175 4.4024557,0 0,0.937175 -1.640056,0 0,4.602739 -1.1185642,0 z" style="font-style:normal;font-variant:normal;font-weight:700;font-stretch:normal;font-family:Arial;-inkscape-font-specification:'Arial Bold';fill:#fff;fill-opacity:1"/></g><rect id="rect4394" width="6.288" height="6.083" x="339.018" y="992.811" style="opacity:1;fill:none;fill-opacity:1;stroke:#fff;stroke-width:.56458193;stroke-miterlimit:4;stroke-dasharray:none;stroke-opacity:1"/><path id="path4396" d="m 340.29278,994.49391 3.73797,0" style="fill:none;fill-rule:evenodd;stroke:#fff;stroke-width:.62299365;stroke-linecap:butt;stroke-linejoin:miter;stroke-miterlimit:4;stroke-dasharray:none;stroke-opacity:1"/><path id="path4396-3" d="m 340.29278,995.94646 3.73797,0" style="fill:none;fill-rule:evenodd;stroke:#fff;stroke-width:.62299365;stroke-linecap:butt;stroke-linejoin:miter;stroke-miterlimit:4;stroke-dasharray:none;stroke-opacity:1"/><path id="path4396-7" d="m 340.29278,997.39899 3.73797,0" style="fill:none;fill-rule:evenodd;stroke:#fff;stroke-width:.62299365;stroke-linecap:butt;stroke-linejoin:miter;stroke-miterlimit:4;stroke-dasharray:none;stroke-opacity:1"/></g></svg>